<svg width="103" height="23" viewBox="0 0 103 23" fill="none" xmlns="http://www.w3.org/2000/svg">
<path opacity="0.9" d="M0.904297 0.671875H8.8584C10.4893 0.671875 11.8906 0.916016 13.0625 1.4043C14.2441 1.89258 15.1523 2.61523 15.7871 3.57227C16.4219 4.5293 16.7393 5.70605 16.7393 7.10254C16.7393 8.24512 16.5439 9.22656 16.1533 10.0469C15.7725 10.8574 15.2305 11.5361 14.5273 12.083C13.834 12.6201 13.0186 13.0498 12.0811 13.3721L10.6895 14.1045H3.77539L3.74609 10.6768H8.8877C9.65918 10.6768 10.2988 10.54 10.8066 10.2666C11.3145 9.99316 11.6953 9.6123 11.9492 9.12402C12.2129 8.63574 12.3447 8.06934 12.3447 7.4248C12.3447 6.74121 12.2178 6.15039 11.9639 5.65234C11.71 5.1543 11.3242 4.77344 10.8066 4.50977C10.2891 4.24609 9.63965 4.11426 8.8584 4.11426H5.29883V22H0.904297V0.671875ZM12.8281 22L7.96484 12.4932L12.6084 12.4639L17.5303 21.7949V22H12.8281ZM34.4346 18.5723V22H23.082V18.5723H34.4346ZM24.5176 0.671875V22H20.123V0.671875H24.5176ZM32.9551 9.3584V12.6982H23.082V9.3584H32.9551ZM34.4199 0.671875V4.11426H23.082V0.671875H34.4199ZM45.3477 12.6396H39.8691L39.8398 9.62207H44.4395C45.25 9.62207 45.9141 9.51953 46.4316 9.31445C46.9492 9.09961 47.335 8.79199 47.5889 8.3916C47.8525 7.98145 47.9844 7.4834 47.9844 6.89746C47.9844 6.2334 47.8574 5.69629 47.6035 5.28613C47.3594 4.87598 46.9736 4.57813 46.4463 4.39258C45.9287 4.20703 45.2598 4.11426 44.4395 4.11426H41.3926V22H36.998V0.671875H44.4395C45.6797 0.671875 46.7881 0.789062 47.7646 1.02344C48.751 1.25781 49.5859 1.61426 50.2695 2.09277C50.9531 2.57129 51.4756 3.17676 51.8369 3.90918C52.1982 4.63184 52.3789 5.49121 52.3789 6.4873C52.3789 7.36621 52.1787 8.17676 51.7783 8.91895C51.3877 9.66113 50.7676 10.2666 49.918 10.7354C49.0781 11.2041 47.9795 11.4629 46.6221 11.5117L45.3477 12.6396ZM45.1572 22H38.668L40.3818 18.5723H45.1572C45.9287 18.5723 46.5586 18.4502 47.0469 18.2061C47.5352 17.9521 47.8965 17.6104 48.1309 17.1807C48.3652 16.751 48.4824 16.2578 48.4824 15.7012C48.4824 15.0762 48.375 14.5342 48.1602 14.0752C47.9551 13.6162 47.623 13.2646 47.1641 13.0205C46.7051 12.7666 46.0996 12.6396 45.3477 12.6396H41.1143L41.1436 9.62207H46.417L47.4277 10.8086C48.7266 10.7891 49.7715 11.0186 50.5625 11.4971C51.3633 11.9658 51.9443 12.5762 52.3057 13.3281C52.6768 14.0801 52.8623 14.8857 52.8623 15.7451C52.8623 17.1123 52.5645 18.2646 51.9688 19.2021C51.373 20.1299 50.499 20.8281 49.3467 21.2969C48.2041 21.7656 46.8076 22 45.1572 22ZM73.6777 10.8379V11.8486C73.6777 13.4697 73.458 14.9248 73.0186 16.2139C72.5791 17.5029 71.959 18.6016 71.1582 19.5098C70.3574 20.4082 69.4004 21.0967 68.2871 21.5752C67.1836 22.0537 65.958 22.293 64.6104 22.293C63.2725 22.293 62.0469 22.0537 60.9336 21.5752C59.8301 21.0967 58.873 20.4082 58.0625 19.5098C57.252 18.6016 56.6221 17.5029 56.1729 16.2139C55.7334 14.9248 55.5137 13.4697 55.5137 11.8486V10.8379C55.5137 9.20703 55.7334 7.75195 56.1729 6.47266C56.6123 5.18359 57.2324 4.08496 58.0332 3.17676C58.8438 2.26855 59.8008 1.5752 60.9043 1.09668C62.0176 0.618164 63.2432 0.378906 64.5811 0.378906C65.9287 0.378906 67.1543 0.618164 68.2578 1.09668C69.3711 1.5752 70.3281 2.26855 71.1289 3.17676C71.9395 4.08496 72.5645 5.18359 73.0039 6.47266C73.4531 7.75195 73.6777 9.20703 73.6777 10.8379ZM69.2393 11.8486V10.8086C69.2393 9.67578 69.1367 8.67969 68.9316 7.82031C68.7266 6.96094 68.4238 6.23828 68.0234 5.65234C67.623 5.06641 67.1348 4.62695 66.5586 4.33398C65.9824 4.03125 65.3232 3.87988 64.5811 3.87988C63.8389 3.87988 63.1797 4.03125 62.6035 4.33398C62.0371 4.62695 61.5537 5.06641 61.1533 5.65234C60.7627 6.23828 60.4648 6.96094 60.2598 7.82031C60.0547 8.67969 59.9521 9.67578 59.9521 10.8086V11.8486C59.9521 12.9717 60.0547 13.9678 60.2598 14.8369C60.4648 15.6963 60.7676 16.4238 61.168 17.0195C61.5684 17.6055 62.0566 18.0498 62.6328 18.3525C63.209 18.6553 63.8682 18.8066 64.6104 18.8066C65.3525 18.8066 66.0117 18.6553 66.5879 18.3525C67.1641 18.0498 67.6475 17.6055 68.0381 17.0195C68.4287 16.4238 68.7266 15.6963 68.9316 14.8369C69.1367 13.9678 69.2393 12.9717 69.2393 11.8486ZM81.5146 0.671875V22H77.1348V0.671875H81.5146ZM97.9941 14.9248H102.374C102.286 16.3604 101.891 17.6348 101.188 18.748C100.494 19.8613 99.5225 20.7305 98.2725 21.3555C97.0322 21.9805 95.5381 22.293 93.79 22.293C92.4229 22.293 91.1973 22.0586 90.1133 21.5898C89.0293 21.1113 88.1016 20.4277 87.3301 19.5391C86.5684 18.6504 85.9873 17.5762 85.5869 16.3164C85.1865 15.0566 84.9863 13.6455 84.9863 12.083V10.6035C84.9863 9.04102 85.1914 7.62988 85.6016 6.37012C86.0215 5.10059 86.6172 4.02148 87.3887 3.13281C88.1699 2.24414 89.1025 1.56055 90.1865 1.08203C91.2705 0.603516 92.4814 0.364258 93.8193 0.364258C95.5967 0.364258 97.0957 0.686523 98.3164 1.33105C99.5469 1.97559 100.499 2.86426 101.173 3.99707C101.856 5.12988 102.267 6.41895 102.403 7.86426H98.0088C97.96 7.00488 97.7891 6.27734 97.4961 5.68164C97.2031 5.07617 96.7588 4.62207 96.1631 4.31934C95.5771 4.00684 94.7959 3.85059 93.8193 3.85059C93.0869 3.85059 92.4473 3.9873 91.9004 4.26074C91.3535 4.53418 90.8945 4.94922 90.5234 5.50586C90.1523 6.0625 89.874 6.76562 89.6885 7.61523C89.5127 8.45508 89.4248 9.44141 89.4248 10.5742V12.083C89.4248 13.1865 89.5078 14.1582 89.6738 14.998C89.8398 15.8281 90.0938 16.5312 90.4355 17.1074C90.7871 17.6738 91.2363 18.1035 91.7832 18.3965C92.3398 18.6797 93.0088 18.8213 93.79 18.8213C94.708 18.8213 95.4648 18.6748 96.0605 18.3818C96.6562 18.0889 97.1104 17.6543 97.4229 17.0781C97.7451 16.502 97.9355 15.7842 97.9941 14.9248Z" fill="white"/>
</svg>
